<svg xmlns="http://www.w3.org/2000/svg" xmlns:xlink="http://www.w3.org/1999/xlink" width="2000" zoomAndPan="magnify" viewBox="0 0 1500 1499.999933" height="2000" preserveAspectRatio="xMidYMid meet" version="1.0"><defs><g/><clipPath id="92bab66e34"><path d="M 206.488281 225.648438 L 1294 225.648438 L 1294 1274.351562 L 206.488281 1274.351562 Z M 206.488281 225.648438 " clip-rule="nonzero"/></clipPath><clipPath id="59687802bd"><path d="M 281.488281 225.648438 L 1218.511719 225.648438 C 1259.929688 225.648438 1293.511719 259.226562 1293.511719 300.648438 L 1293.511719 1199.351562 C 1293.511719 1240.773438 1259.929688 1274.351562 1218.511719 1274.351562 L 281.488281 1274.351562 C 240.070312 1274.351562 206.488281 1240.773438 206.488281 1199.351562 L 206.488281 300.648438 C 206.488281 259.226562 240.070312 225.648438 281.488281 225.648438 Z M 281.488281 225.648438 " clip-rule="nonzero"/></clipPath><clipPath id="6d45cfaeef"><path d="M 0.488281 0.648438 L 1087 0.648438 L 1087 1049.351562 L 0.488281 1049.351562 Z M 0.488281 0.648438 " clip-rule="nonzero"/></clipPath><clipPath id="1e5b7c6f47"><path d="M 75.488281 0.648438 L 1012.511719 0.648438 C 1053.929688 0.648438 1087.511719 34.226562 1087.511719 75.648438 L 1087.511719 974.351562 C 1087.511719 1015.773438 1053.929688 1049.351562 1012.511719 1049.351562 L 75.488281 1049.351562 C 34.070312 1049.351562 0.488281 1015.773438 0.488281 974.351562 L 0.488281 75.648438 C 0.488281 34.226562 34.070312 0.648438 75.488281 0.648438 Z M 75.488281 0.648438 " clip-rule="nonzero"/></clipPath><clipPath id="8f1867faa7"><rect x="0" width="1088" y="0" height="1050"/></clipPath><clipPath id="266e87d065"><path d="M 206.492188 225.648438 L 1293.238281 225.648438 L 1293.238281 1274.148438 L 206.492188 1274.148438 Z M 206.492188 225.648438 " clip-rule="nonzero"/></clipPath><clipPath id="98ac61158d"><path d="M 281.492188 225.648438 L 1218.507812 225.648438 C 1259.929688 225.648438 1293.507812 259.226562 1293.507812 300.648438 L 1293.507812 1199.347656 C 1293.507812 1240.769531 1259.929688 1274.347656 1218.507812 1274.347656 L 281.492188 1274.347656 C 240.070312 1274.347656 206.492188 1240.769531 206.492188 1199.347656 L 206.492188 300.648438 C 206.492188 259.226562 240.070312 225.648438 281.492188 225.648438 Z M 281.492188 225.648438 " clip-rule="nonzero"/></clipPath><clipPath id="520eaad3f9"><rect x="0" width="759" y="0" height="732"/></clipPath></defs><g clip-path="url(#92bab66e34)"><g clip-path="url(#59687802bd)"><g transform="matrix(1, 0, 0, 1, 206, 225)"><g clip-path="url(#8f1867faa7)"><g clip-path="url(#6d45cfaeef)"><g clip-path="url(#1e5b7c6f47)"><path fill="#ffffff" d="M 0.488281 0.648438 L 1086.0625 0.648438 L 1086.0625 1049.351562 L 0.488281 1049.351562 Z M 0.488281 0.648438 " fill-opacity="1" fill-rule="nonzero"/></g></g></g></g></g></g><g clip-path="url(#266e87d065)"><g clip-path="url(#98ac61158d)"><path stroke-linecap="butt" transform="matrix(0.75, 0, 0, 0.75, 206.490133, 225.648563)" fill="none" stroke-linejoin="miter" d="M 100.002748 -0.000167286 L 1349.357022 -0.000167286 C 1404.586193 -0.000167286 1449.357031 44.77067 1449.357031 99.999841 L 1449.357031 1298.26557 C 1449.357031 1353.494741 1404.586193 1398.265578 1349.357022 1398.265578 L 100.002748 1398.265578 C 44.773576 1398.265578 0.00273911 1353.494741 0.00273911 1298.26557 L 0.00273911 99.999841 C 0.00273911 44.77067 44.773576 -0.000167286 100.002748 -0.000167286 Z M 100.002748 -0.000167286 " stroke="#000000" stroke-width="8" stroke-opacity="1" stroke-miterlimit="4"/></g></g><g transform="matrix(1, 0, 0, 1, 371, 384)"><g clip-path="url(#520eaad3f9)"><g fill="#000000" fill-opacity="1"><g transform="translate(0.613306, 541.783247)"><g><path d="M 38.640625 0 L 38.640625 -378.375 L 139 -378.375 L 139 -83.71875 L 308.0625 -83.71875 L 308.0625 0 Z M 38.640625 0 "/></g></g></g><g fill="#000000" fill-opacity="1"><g transform="translate(325.319018, 541.783247)"><g><path d="M 38.640625 0 L 38.640625 -378.375 L 139 -378.375 L 139 -232.921875 L 293.046875 -232.921875 L 293.046875 -378.375 L 393.40625 -378.375 L 393.40625 0 L 293.046875 0 L 293.046875 -149.734375 L 139 -149.734375 L 139 0 Z M 38.640625 0 "/></g></g></g></g></g></svg>